HIERARCHY
ROOT mixamorig:Hips
{
	OFFSET 0.370399 90.456322 1.091393
	CHANNELS 6 Xposition Yposition Zposition Xrotation Yrotation Zrotation
	JOINT mixamorig:Spine
	{
		OFFSET 0.947968 9.911926 2.130122
		CHANNELS 3 Xrotation Yrotation Zrotation
		JOINT mixamorig:Spine1
		{
			OFFSET -0.415251 9.747147 2.738495
			CHANNELS 3 Xrotation Yrotation Zrotation
			JOINT mixamorig:Spine2
			{
				OFFSET -0.454972 8.886848 2.348015
				CHANNELS 3 Xrotation Yrotation Zrotation
				JOINT mixamorig:Neck
				{
					OFFSET -0.903543 15.841858 5.700592
					CHANNELS 3 Xrotation Yrotation Zrotation
					JOINT mixamorig:Head
					{
						OFFSET -0.498206 8.037384 5.522280
						CHANNELS 3 Xrotation Yrotation Zrotation
						JOINT mixamorig:HeadTop_End
						{
							OFFSET 0.161545 17.243042 5.168661
							CHANNELS 3 Xrotation Yrotation Zrotation
							End Site
							{
								OFFSET 0.149449 13.644638 2.022297
							}
						}
						JOINT mixamorig:LeftEye
						{
							OFFSET 3.023634 4.941757 10.154486
							CHANNELS 3 Xrotation Yrotation Zrotation
							End Site
							{
								OFFSET 0.149449 13.644638 2.022297
							}
						}
						JOINT mixamorig:RightEye
						{
							OFFSET -3.110752 5.018478 10.090263
							CHANNELS 3 Xrotation Yrotation Zrotation
							End Site
							{
								OFFSET 0.149449 13.644638 2.022297
							}
						}
					}
				}
				JOINT mixamorig:LeftShoulder
				{
					OFFSET 3.973635 11.077835 3.016917
					CHANNELS 3 Xrotation Yrotation Zrotation
					JOINT mixamorig:LeftArm
					{
						OFFSET 10.536211 -1.150406 -2.263068
						CHANNELS 3 Xrotation Yrotation Zrotation
						JOINT mixamorig:LeftForeArm
						{
							OFFSET 12.175444 -20.023346 -15.032388
							CHANNELS 3 Xrotation Yrotation Zrotation
							JOINT mixamorig:LeftHand
							{
								OFFSET -5.498022 -18.745361 20.515965
								CHANNELS 3 Xrotation Yrotation Zrotation
								JOINT mixamorig:LeftHandThumb1
								{
									OFFSET -2.773180 -0.033112 2.840052
									CHANNELS 3 Xrotation Yrotation Zrotation
									JOINT mixamorig:LeftHandThumb2
									{
										OFFSET -2.753510 -1.520790 2.737011
										CHANNELS 3 Xrotation Yrotation Zrotation
										JOINT mixamorig:LeftHandThumb3
										{
											OFFSET -1.147897 -2.134285 2.419596
											CHANNELS 3 Xrotation Yrotation Zrotation
											JOINT mixamorig:LeftHandThumb4
											{
												OFFSET -1.617557 -0.176559 1.928680
												CHANNELS 3 Xrotation Yrotation Zrotation
												End Site
												{
													OFFSET 1.742390 1.818962 0.151358
												}
											}
										}
									}
								}
								JOINT mixamorig:LeftHandIndex1
								{
									OFFSET -1.888548 -3.671608 8.444372
									CHANNELS 3 Xrotation Yrotation Zrotation
									JOINT mixamorig:LeftHandIndex2
									{
										OFFSET -2.850023 -1.825806 -1.435156
										CHANNELS 3 Xrotation Yrotation Zrotation
										JOINT mixamorig:LeftHandIndex3
										{
											OFFSET -0.549032 1.122238 -2.598356
											CHANNELS 3 Xrotation Yrotation Zrotation
											JOINT mixamorig:LeftHandIndex4
											{
												OFFSET 1.767797 1.605965 0.144350
												CHANNELS 3 Xrotation Yrotation Zrotation
												End Site
												{
													OFFSET -0.418016 0.663330 -2.260599
												}
											}
										}
									}
								}
								JOINT mixamorig:LeftHandMiddle1
								{
									OFFSET -0.350178 -5.363647 7.873655
									CHANNELS 3 Xrotation Yrotation Zrotation
									JOINT mixamorig:LeftHandMiddle2
									{
										OFFSET -2.993784 -2.023262 -0.787651
										CHANNELS 3 Xrotation Yrotation Zrotation
										JOINT mixamorig:LeftHandMiddle3
										{
											OFFSET -0.830025 1.140663 -2.591858
											CHANNELS 3 Xrotation Yrotation Zrotation
											JOINT mixamorig:LeftHandMiddle4
											{
												OFFSET 1.542412 2.113625 -1.088375
												CHANNELS 3 Xrotation Yrotation Zrotation
												End Site
												{
													OFFSET -1.557194 -0.082138 -2.366306
												}
											}
										}
									}
								}
								JOINT mixamorig:LeftHandRing1
								{
									OFFSET 0.537535 -6.503212 6.617542
									CHANNELS 3 Xrotation Yrotation Zrotation
									JOINT mixamorig:LeftHandRing2
									{
										OFFSET -2.598215 -1.710037 -0.522270
										CHANNELS 3 Xrotation Yrotation Zrotation
										JOINT mixamorig:LeftHandRing3
										{
											OFFSET -0.396503 1.459953 -2.518219
											CHANNELS 3 Xrotation Yrotation Zrotation
											JOINT mixamorig:LeftHandRing4
											{
												OFFSET 1.939833 1.774025 -0.314743
												CHANNELS 3 Xrotation Yrotation Zrotation
												End Site
												{
													OFFSET -0.918915 0.576324 -2.415088
												}
											}
										}
									}
								}
								JOINT mixamorig:LeftHandPinky1
								{
									OFFSET 1.134647 -7.516533 4.710684
									CHANNELS 3 Xrotation Yrotation Zrotation
									JOINT mixamorig:LeftHandPinky2
									{
										OFFSET -2.759083 -2.181595 -0.766876
										CHANNELS 3 Xrotation Yrotation Zrotation
										JOINT mixamorig:LeftHandPinky3
										{
											OFFSET -0.807619 0.794685 -1.784946
											CHANNELS 3 Xrotation Yrotation Zrotation
											JOINT mixamorig:LeftHandPinky4
											{
												OFFSET 1.097881 1.575386 -0.464920
												CHANNELS 3 Xrotation Yrotation Zrotation
												End Site
												{
													OFFSET -0.987345 0.186043 -1.701155
												}
											}
										}
									}
								}
							}
						}
					}
				}
				JOINT mixamorig:RightShoulder
				{
					OFFSET -5.153033 10.652924 2.751717
					CHANNELS 3 Xrotation Yrotation Zrotation
					JOINT mixamorig:RightArm
					{
						OFFSET -10.237621 -2.138702 -2.842937
						CHANNELS 3 Xrotation Yrotation Zrotation
						JOINT mixamorig:RightForeArm
						{
							OFFSET -12.044677 -24.921288 3.000721
							CHANNELS 3 Xrotation Yrotation Zrotation
							JOINT mixamorig:RightHand
							{
								OFFSET 11.828462 -2.481667 25.621273
								CHANNELS 3 Xrotation Yrotation Zrotation
								JOINT mixamorig:RightHandPinky1
								{
									OFFSET 1.454603 -1.813713 8.634342
									CHANNELS 3 Xrotation Yrotation Zrotation
									JOINT mixamorig:RightHandPinky2
									{
										OFFSET 3.115809 -1.763168 -0.378197
										CHANNELS 3 Xrotation Yrotation Zrotation
										JOINT mixamorig:RightHandPinky3
										{
											OFFSET -0.043979 -0.706383 -1.992207
											CHANNELS 3 Xrotation Yrotation Zrotation
											JOINT mixamorig:RightHandPinky4
											{
												OFFSET -1.232790 0.078362 -1.541901
												CHANNELS 3 Xrotation Yrotation Zrotation
												End Site
												{
													OFFSET 1.201897 -1.189766 -1.021420
												}
											}
										}
									}
								}
								JOINT mixamorig:RightHandRing1
								{
									OFFSET 2.295358 0.230125 9.001907
									CHANNELS 3 Xrotation Yrotation Zrotation
									JOINT mixamorig:RightHandRing2
									{
										OFFSET 2.837056 -1.375023 -0.090279
										CHANNELS 3 Xrotation Yrotation Zrotation
										JOINT mixamorig:RightHandRing3
										{
											OFFSET 0.414824 -1.183304 -2.656643
											CHANNELS 3 Xrotation Yrotation Zrotation
											JOINT mixamorig:RightHandRing4
											{
												OFFSET -2.044207 0.355553 -1.644413
												CHANNELS 3 Xrotation Yrotation Zrotation
												End Site
												{
													OFFSET 1.205153 -1.496140 -1.821640
												}
											}
										}
									}
								}
								JOINT mixamorig:RightHandMiddle1
								{
									OFFSET 3.232103 1.883080 8.767902
									CHANNELS 3 Xrotation Yrotation Zrotation
									JOINT mixamorig:RightHandMiddle2
									{
										OFFSET 3.336446 -1.585846 0.172863
										CHANNELS 3 Xrotation Yrotation Zrotation
										JOINT mixamorig:RightHandMiddle3
										{
											OFFSET 0.216553 -1.153450 -2.707474
											CHANNELS 3 Xrotation Yrotation Zrotation
											JOINT mixamorig:RightHandMiddle4
											{
												OFFSET -2.381354 0.639885 -1.396656
												CHANNELS 3 Xrotation Yrotation Zrotation
												End Site
												{
													OFFSET 0.874144 -1.554253 -2.202538
												}
											}
										}
									}
								}
								JOINT mixamorig:RightHandIndex1
								{
									OFFSET 4.519993 3.400948 7.505959
									CHANNELS 3 Xrotation Yrotation Zrotation
									JOINT mixamorig:RightHandIndex2
									{
										OFFSET 3.351607 -1.490944 0.244389
										CHANNELS 3 Xrotation Yrotation Zrotation
										JOINT mixamorig:RightHandIndex3
										{
											OFFSET 0.431644 -1.267181 -2.553467
											CHANNELS 3 Xrotation Yrotation Zrotation
											JOINT mixamorig:RightHandIndex4
											{
												OFFSET -1.594398 0.015610 -1.783993
												CHANNELS 3 Xrotation Yrotation Zrotation
												End Site
												{
													OFFSET 1.420406 -1.436630 -1.282021
												}
											}
										}
									}
								}
								JOINT mixamorig:RightHandThumb1
								{
									OFFSET 3.330817 1.885315 1.046989
									CHANNELS 3 Xrotation Yrotation Zrotation
									JOINT mixamorig:RightHandThumb2
									{
										OFFSET 3.346648 0.934334 2.304951
										CHANNELS 3 Xrotation Yrotation Zrotation
										JOINT mixamorig:RightHandThumb3
										{
											OFFSET 2.009879 0.891518 2.625317
											CHANNELS 3 Xrotation Yrotation Zrotation
											JOINT mixamorig:RightHandThumb4
											{
												OFFSET 1.230711 1.616867 1.496181
												CHANNELS 3 Xrotation Yrotation Zrotation
												End Site
												{
													OFFSET -2.191244 0.798378 -0.963600
												}
											}
										}
									}
								}
							}
						}
					}
				}
			}
		}
	}
	JOINT mixamorig:LeftUpLeg
	{
		OFFSET 7.567883 -7.055206 -2.909209
		CHANNELS 3 Xrotation Yrotation Zrotation
		JOINT mixamorig:LeftLeg
		{
			OFFSET 3.242708 -34.874111 27.241600
			CHANNELS 3 Xrotation Yrotation Zrotation
			JOINT mixamorig:LeftFoot
			{
				OFFSET -3.805744 3.573410 -44.220825
				CHANNELS 3 Xrotation Yrotation Zrotation
				JOINT mixamorig:LeftToeBase
				{
					OFFSET 0.445134 -11.120712 -8.187738
					CHANNELS 3 Xrotation Yrotation Zrotation
					JOINT mixamorig:LeftToe_End
					{
						OFFSET 1.257342 -9.181902 0.441473
						CHANNELS 3 Xrotation Yrotation Zrotation
						End Site
						{
							OFFSET 1.059506 0.588068 9.198627
						}
					}
				}
			}
		}
	}
	JOINT mixamorig:RightUpLeg
	{
		OFFSET -8.773689 -5.498230 -2.881671
		CHANNELS 3 Xrotation Yrotation Zrotation
		JOINT mixamorig:RightLeg
		{
			OFFSET 0.937791 -39.797066 19.599424
			CHANNELS 3 Xrotation Yrotation Zrotation
			JOINT mixamorig:RightFoot
			{
				OFFSET 7.092713 -36.225376 -24.902599
				CHANNELS 3 Xrotation Yrotation Zrotation
				JOINT mixamorig:RightToeBase
				{
					OFFSET -1.077571 -8.611105 10.751509
					CHANNELS 3 Xrotation Yrotation Zrotation
					JOINT mixamorig:RightToe_End
					{
						OFFSET -0.775126 -0.135539 9.244675
						CHANNELS 3 Xrotation Yrotation Zrotation
						End Site
						{
							OFFSET 0.180654 9.275124 0.150431
						}
					}
				}
			}
		}
	}
}
MOTION
Frames: 4
Frame Time: 0.041667
0.370399 90.456322 1.091384 0.000003 -0.000000 0.000001 0.000002 -0.000000 -0.000000 0.000001 -0.000000 0.000000 0.000000 0.000000 -0.000000 -0.000003 -0.000000 0.000000 0.000008 0.000000 0.000000 0.000000 -0.000000 -0.000000 0.000000 -0.000000 -0.000000 -0.000001 0.000000 -0.000000 -0.000004 -0.000002 -0.000001 0.000004 -0.000003 0.000006 0.000005 0.000003 -0.000000 -0.000004 -0.000002 0.000005 -0.000003 -0.000003 -0.000001 0.000000 -0.000005 0.000003 0.000001 0.000001 -0.000004 0.000002 0.000007 0.000006 -0.000000 0.000004 -0.000003 0.000000 -0.000000 -0.000005 -0.000000 -0.000001 0.000003 -0.000002 0.000001 -0.000005 0.000007 -0.000002 -0.000012 0.000004 -0.000004 0.000001 -0.000003 -0.000001 -0.000003 -0.000003 -0.000002 0.000003 0.000001 0.000003 -0.000004 -0.000001 -0.000004 0.000002 -0.000004 -0.000006 0.000005 -0.000005 -0.000005 0.000001 -0.000003 -0.000003 -0.000003 0.000000 -0.000007 0.000003 -0.000007 0.000007 0.000002 0.000001 -0.000002 0.000005 -0.000002 0.000001 -0.000000 -0.000005 0.000006 -0.000013 0.000003 0.000004 0.000002 0.000001 -0.000002 0.000001 -0.000008 -0.000012 0.000010 -0.000001 0.000002 0.000001 0.000008 0.000005 -0.000002 0.000000 0.000000 -0.000000 -0.000002 0.000003 0.000002 0.000002 -0.000004 -0.000003 -0.000005 -0.000003 0.000002 -0.000003 -0.000004 -0.000000 0.000005 0.000007 -0.000000 0.000003 0.000000 0.000001 0.000002 -0.000007 -0.000004 -0.000003 -0.000005 -0.000000 -0.000001 0.000002 0.000003 0.000001 -0.000002 -0.000005 0.000000 -0.000016 -0.000002 -0.000002 -0.000006 -0.000001 0.000002 -0.000007 0.000006 0.000001 0.000011 -0.000000 0.000004 -0.000005 -0.000003 0.000001 0.000007 -0.000006 -0.000009 -0.000001 0.000000 -0.000005 0.000000 -0.000000 0.000002 0.000002 0.000001 -0.000007 -0.000002 -0.000001 0.000000 -0.000001 -0.000001 0.000000 -0.000000 0.000001 0.000001 0.000001 -0.000000 0.000001 -0.000000 0.000001 -0.000002 -0.000001 -0.000000 -0.000000 0.000000 0.000000 
0.473553 91.152596 15.917961 -1.839802 -1.279099 3.362639 0.980800 6.307596 -2.451252 0.279814 2.650975 0.801484 0.237019 2.613744 1.024274 0.466047 -1.472620 -0.459850 1.180768 -7.679280 -2.261239 0.000005 0.000000 0.000000 0.000005 0.000000 0.000000 0.000008 -0.000000 0.000000 -0.084600 -0.555106 1.132541 4.967902 -0.572144 2.785971 10.233878 2.936131 4.806904 -2.145354 -1.487674 -7.913340 -0.000012 -0.000010 -0.000005 7.756954 4.798450 2.033844 -1.435425 1.990769 1.995036 0.000015 0.000005 0.000013 1.913016 -2.340172 -2.010068 -0.636738 0.658163 0.422957 -0.636729 0.658203 0.422959 -0.000000 0.000007 0.000000 0.505693 -0.629167 -0.311171 -0.043008 0.049738 0.035688 -0.040022 0.046258 0.033184 0.000001 0.000003 -0.000000 1.214392 -1.268460 -1.467931 0.042356 -0.052995 -0.037352 0.023942 -0.029962 -0.021132 0.000001 -0.000003 0.000003 -1.069926 0.980454 0.225817 0.125536 -0.120241 -0.110206 0.125033 -0.119761 -0.109757 0.000007 0.000000 0.000005 0.025387 -0.813247 -1.860610 -14.120609 5.494590 1.555753 10.957836 -6.645378 -5.169959 -6.814529 -3.296774 7.681570 0.211378 0.337941 -0.279375 0.068528 0.131283 -0.048165 0.072332 0.138563 -0.050826 -0.000003 0.000003 0.000003 0.014872 0.017026 -0.218911 0.073968 0.156193 -0.058162 0.078003 0.164785 -0.061320 -0.000011 -0.000001 0.000004 0.145628 0.105948 -0.810848 -0.178203 -0.360898 0.138830 -0.164493 -0.333029 0.128132 0.000005 -0.000009 -0.000007 1.015889 1.230743 -0.880658 -0.093000 -0.196075 0.081387 -0.093019 -0.196128 0.081365 0.000000 -0.000003 0.000002 0.000001 -0.000001 0.000004 4.491762 1.849119 -0.240097 2.140951 2.139945 -0.721875 0.000001 -0.000004 -0.000007 -11.520483 -0.297981 -2.172101 -6.286986 0.052815 -3.478091 -4.812607 -3.922344 0.072537 2.533666 0.324757 -0.320147 0.000003 -0.000000 0.000002 15.868686 -1.670554 -1.956964 -6.484143 2.970074 -2.332619 -7.675708 -0.898013 0.472489 0.211260 -0.004366 0.017659 0.000000 -0.000002 0.000000 
0.235606 93.400269 31.238422 -1.237755 -2.330064 8.281094 0.591755 11.491753 -7.236661 -0.462380 4.156016 1.111446 -0.591400 4.101357 1.462704 1.249076 -1.391698 -1.834148 5.223499 -14.340307 -0.025902 -0.000006 0.000000 0.000000 -0.000006 0.000000 0.000000 -0.000003 -0.000000 -0.000000 -0.370242 0.720865 4.260839 13.282940 -3.837472 4.466490 13.853547 4.192575 6.398781 -3.215167 2.585896 -9.399431 -0.000009 -0.000001 -0.000004 9.699485 6.380904 2.752024 -2.467885 1.800904 2.265282 0.000004 0.000002 0.000000 3.067714 -3.665816 -2.403530 -1.077064 1.107621 0.717815 -1.077054 1.107628 0.717832 0.000005 0.000005 0.000005 -0.227050 0.193424 0.362774 -0.284252 0.327459 0.235990 -0.279389 0.321879 0.231955 0.000006 0.000009 -0.000002 0.867533 -0.838036 -1.240935 -0.158097 0.197087 0.139516 -0.178840 0.222896 0.157830 -0.000003 0.000004 -0.000006 -1.514189 1.967325 1.893698 0.118507 -0.113501 -0.104024 0.117518 -0.112558 -0.103163 0.000003 -0.000007 0.000004 -0.318996 2.985160 -4.996523 -17.824415 2.451806 1.721836 12.010929 -7.350177 -5.611184 -10.548806 -1.009395 10.839612 -0.520484 -0.754257 0.036482 -0.327431 -0.630984 0.228947 -0.320380 -0.617347 0.224073 -0.000002 0.000002 -0.000004 -1.130449 -1.731926 0.600977 -0.068861 -0.145852 0.054090 -0.067265 -0.142381 0.052840 -0.000003 -0.000001 0.000004 -0.626494 -1.042812 -0.179085 -0.510918 -1.040528 0.396774 -0.500054 -1.018221 0.388347 0.000009 -0.000001 -0.000007 -0.097605 -0.721468 -0.433803 -0.576023 -1.226072 0.502767 -0.576060 -1.226090 0.502741 -0.000001 -0.000003 -0.000006 0.000002 0.000003 0.000007 9.903863 4.334369 -1.038853 3.479603 3.531703 -1.232533 -0.000000 0.000002 -0.000006 -20.506499 -2.301270 -7.098123 -19.933919 -0.071175 -2.541072 -8.986619 -2.252493 0.292181 3.346376 0.425845 -0.425797 -0.000001 -0.000001 0.000003 31.961129 -6.004640 -4.174453 -21.883948 3.291093 -7.318797 -1.020731 1.419996 5.292364 -8.813232 0.225913 -0.122318 0.000000 -0.000001 -0.000000 
-0.134501 95.379692 46.291882 -0.709276 -2.315816 14.970364 1.616690 16.067824 -14.603226 -1.092881 4.893151 1.034204 -1.322232 4.848069 1.429299 1.286269 -2.633365 -0.952384 8.708141 -18.573134 1.009758 -0.000007 0.000000 -0.000000 -0.000007 0.000000 -0.000000 0.000000 -0.000000 -0.000000 -0.732521 1.567790 7.761461 20.143367 -7.542703 6.765082 14.814776 4.544708 6.810447 -4.859739 2.637218 -10.352126 -0.000005 0.000001 -0.000003 11.527681 8.131291 3.548629 -5.120760 0.514623 2.424980 0.000022 0.000003 0.000014 4.647713 -5.546251 -2.943222 -1.178666 1.210659 0.786124 -1.178662 1.210662 0.786135 0.000002 -0.000001 0.000001 0.455755 -0.519141 -0.401260 -0.315070 0.362803 0.261627 -0.315497 0.363283 0.261964 0.000001 0.000010 -0.000000 1.221523 -1.351556 -1.252149 -0.163922 0.204357 0.144669 -0.173328 0.216028 0.152951 -0.000000 0.000000 0.000003 -1.055105 1.994567 2.872496 0.283835 -0.272529 -0.249068 0.282317 -0.271088 -0.247751 0.000002 -0.000015 0.000008 -0.345636 3.473860 -8.484914 -17.966765 2.121440 -0.131628 8.787435 -5.227203 -4.227561 -6.989351 -4.791779 10.721468 -1.169510 -1.787154 0.678208 -0.660903 -1.279908 0.460216 -0.659732 -1.277609 0.459405 0.000006 0.000008 0.000005 -1.929564 -2.976485 1.227215 -0.241915 -0.513868 0.189694 -0.243347 -0.516869 0.190849 -0.000000 0.000002 -0.000001 -1.690967 -2.700082 0.417114 -0.687739 -1.404798 0.533187 -0.676305 -1.381196 0.524364 0.000005 0.000001 -0.000008 -1.388948 -2.774833 0.294797 -0.970703 -2.082169 0.845512 -0.970715 -2.082173 0.845486 -0.000002 -0.000003 -0.000001 -0.000002 -0.000007 0.000011 14.392872 6.568306 -2.084697 3.910681 3.948492 -1.397141 -0.000023 0.000006 0.000018 -25.749294 -5.829146 -14.885299 -37.412945 -1.765660 6.315714 -11.477670 -0.238467 0.442460 2.156047 0.277276 -0.271542 0.000000 -0.000001 0.000001 39.971090 -13.340247 -8.202962 -29.076733 4.744021 -8.361993 25.676676 7.319322 13.773283 -39.416144 1.849833 -2.854037 -0.000000 -0.000001 0.000000 
